<?xml version="1.0" encoding="UTF-8" standalone="no"?>
<!-- Created with Inkscape (http://www.inkscape.org/) -->

<svg
   xmlns:dc="http://purl.org/dc/elements/1.1/"
   xmlns:cc="http://creativecommons.org/ns#"
   xmlns:rdf="http://www.w3.org/1999/02/22-rdf-syntax-ns#"
   xmlns:svg="http://www.w3.org/2000/svg"
   xmlns="http://www.w3.org/2000/svg"
   xmlns:sodipodi="http://sodipodi.sourceforge.net/DTD/sodipodi-0.dtd"
   xmlns:inkscape="http://www.inkscape.org/namespaces/inkscape"
   width="162.19284mm"
   height="61.870049mm"
   viewBox="0 0 162.19284 61.870049"
   version="1.1"
   id="svg3998"
   inkscape:version="0.92.4 (5da689c313, 2019-01-14)"
   sodipodi:docname="decent_descent_large_white_text2path.svg">
  <defs
     id="defs3992" />
  <sodipodi:namedview
     id="base"
     pagecolor="#ffffff"
     bordercolor="#666666"
     borderopacity="1.0"
     inkscape:pageopacity="0.0"
     inkscape:pageshadow="2"
     inkscape:zoom="1.979899"
     inkscape:cx="264.05311"
     inkscape:cy="62.98127"
     inkscape:document-units="mm"
     inkscape:current-layer="layer1"
     showgrid="false"
     inkscape:pagecheckerboard="true"
     fit-margin-top="0"
     fit-margin-left="0"
     fit-margin-right="0"
     fit-margin-bottom="0"
     inkscape:window-width="1920"
     inkscape:window-height="1137"
     inkscape:window-x="-8"
     inkscape:window-y="-8"
     inkscape:window-maximized="1"
     showguides="true"
     inkscape:guide-bbox="true">
    <sodipodi:guide
       position="162.20494,1.730423"
       orientation="1,0"
       id="guide881"
       inkscape:locked="false" />
  </sodipodi:namedview>
  <metadata
     id="metadata3995">
    <rdf:RDF>
      <cc:Work
         rdf:about="">
        <dc:format>image/svg+xml</dc:format>
        <dc:type
           rdf:resource="http://purl.org/dc/dcmitype/StillImage" />
        <dc:title></dc:title>
      </cc:Work>
    </rdf:RDF>
  </metadata>
  <g
     inkscape:label="Layer 1"
     inkscape:groupmode="layer"
     id="layer1"
     transform="translate(-27.347424,-15.088784)">
    <g
       aria-label="Decent
"
       style="font-style:normal;font-weight:normal;font-size:10.58333302px;line-height:1.25;font-family:sans-serif;letter-spacing:-0.26458332px;word-spacing:0px;fill:#ffffff;fill-opacity:1;stroke:none;stroke-width:0.26458332"
       id="text3715-8-4">
      <path
         d="m 27.347424,15.088784 h 8.946223 q 3.026172,0 4.613672,0.46302 2.133203,0.628386 3.654557,2.232422 1.521354,1.604036 2.315104,3.935677 0.79375,2.315104 0.79375,5.721614 0,2.993099 -0.74414,5.159375 -0.909506,2.645833 -2.596224,4.282942 -1.273307,1.240235 -3.439583,1.934766 -1.620573,0.51263 -4.332552,0.51263 h -9.210807 z m 4.894791,4.101041 v 16.0569 h 3.654557 q 2.050521,0 2.960026,-0.23151 1.190625,-0.297656 1.967839,-1.008724 0.79375,-0.711068 1.289843,-2.331641 0.496094,-1.637109 0.496094,-4.448307 0,-2.811197 -0.496094,-4.316015 -0.496093,-1.504818 -1.389062,-2.348177 -0.892969,-0.843359 -2.265495,-1.141016 -1.02526,-0.23151 -4.018359,-0.23151 z"
         style="font-style:normal;font-variant:normal;font-weight:bold;font-stretch:normal;font-size:33.86666489px;font-family:Arial;-inkscape-font-specification:Arial;letter-spacing:-0.26458332px;fill:#ffffff;fill-opacity:1;stroke-width:0.26458332"
         id="path883" />
      <path
         d="m 61.710182,33.741908 4.630208,0.777213 q -0.892968,2.546614 -2.827734,3.886068 -1.918229,1.322916 -4.812109,1.322916 -4.580599,0 -6.779948,-2.993099 -1.736328,-2.397786 -1.736328,-6.052343 0,-4.365625 2.282032,-6.829557 2.282031,-2.480469 5.771223,-2.480469 3.919141,0 6.184635,2.596224 2.265495,2.579688 2.166276,7.920963 H 54.946771 q 0.04961,2.067057 1.124479,3.22461 1.07487,1.141015 2.678906,1.141015 1.091407,0 1.835547,-0.595312 0.744141,-0.595313 1.124479,-1.918229 z m 0.264584,-4.696354 q -0.04961,-2.017448 -1.041797,-3.059245 -0.992188,-1.058333 -2.414323,-1.058333 -1.521354,0 -2.513542,1.107942 -0.992187,1.107943 -0.975651,3.009636 z"
         style="font-style:normal;font-variant:normal;font-weight:bold;font-stretch:normal;font-size:33.86666489px;font-family:Arial;-inkscape-font-specification:Arial;letter-spacing:-0.26458332px;fill:#ffffff;fill-opacity:1;stroke-width:0.26458332"
         id="path885" />
      <path
         d="m 85.439999,26.96196 -4.580598,0.826823 q -0.231511,-1.372526 -1.058334,-2.067057 -0.810286,-0.694532 -2.116666,-0.694532 -1.736328,0 -2.778125,1.207162 -1.02526,1.190625 -1.02526,4.001823 0,3.12539 1.041797,4.415234 1.058333,1.289843 2.827734,1.289843 1.322916,0 2.166276,-0.74414 0.843359,-0.760677 1.190625,-2.596224 l 4.564062,0.777213 q -0.711068,3.141927 -2.728516,4.745964 -2.017447,1.604036 -5.407421,1.604036 -3.852995,0 -6.151562,-2.430859 -2.282032,-2.430859 -2.282032,-6.730338 0,-4.349089 2.298568,-6.763411 2.298568,-2.43086 6.217708,-2.43086 3.208073,0 5.093229,1.389063 1.901693,1.372526 2.728515,4.20026 z"
         style="font-style:normal;font-variant:normal;font-weight:bold;font-stretch:normal;font-size:33.86666489px;font-family:Arial;-inkscape-font-specification:Arial;letter-spacing:-0.26458332px;fill:#ffffff;fill-opacity:1;stroke-width:0.26458332"
         id="path887" />
      <path
         d="m 98.884136,33.741908 4.630204,0.777213 q -0.89296,2.546614 -2.82773,3.886068 -1.918229,1.322916 -4.812109,1.322916 -4.580599,0 -6.779948,-2.993099 -1.736328,-2.397786 -1.736328,-6.052343 0,-4.365625 2.282032,-6.829557 2.282031,-2.480469 5.771223,-2.480469 3.919141,0 6.18464,2.596224 2.26549,2.579688 2.16627,7.920963 H 92.120725 q 0.04961,2.067057 1.124479,3.22461 1.07487,1.141015 2.678906,1.141015 1.091407,0 1.835547,-0.595312 0.744141,-0.595313 1.124479,-1.918229 z m 0.264584,-4.696354 q -0.04961,-2.017448 -1.041797,-3.059245 -0.992188,-1.058333 -2.414323,-1.058333 -1.521354,0 -2.513542,1.107942 -0.992187,1.107943 -0.975651,3.009636 z"
         style="font-style:normal;font-variant:normal;font-weight:bold;font-stretch:normal;font-size:33.86666489px;font-family:Arial;-inkscape-font-specification:Arial;letter-spacing:-0.26458332px;fill:#ffffff;fill-opacity:1;stroke-width:0.26458332"
         id="path889" />
      <path
         d="m 123.27541,39.33123 h -4.64674 v -8.96276 q 0,-2.84427 -0.29766,-3.671093 -0.29766,-0.84336 -0.97565,-1.30638 -0.66146,-0.463021 -1.60404,-0.463021 -1.20716,0 -2.16627,0.661458 -0.95912,0.661458 -1.32292,1.752865 -0.34726,1.091406 -0.34726,4.034895 v 7.954036 h -4.64675 V 21.769512 h 4.31602 V 24.3492 q 2.29856,-2.976563 5.78776,-2.976563 1.53789,0 2.81119,0.56224 1.27331,0.545703 1.91823,1.405599 0.66146,0.859896 0.90951,1.951302 0.26458,1.091406 0.26458,3.12539 z"
         style="font-style:normal;font-variant:normal;font-weight:bold;font-stretch:normal;font-size:33.86666489px;font-family:Arial;-inkscape-font-specification:Arial;letter-spacing:-0.26458332px;fill:#ffffff;fill-opacity:1;stroke-width:0.26458332"
         id="path891" />
      <path
         d="m 135.79351,21.769512 v 3.704167 h -3.175 v 7.077604 q 0,2.149739 0.0827,2.513541 0.0992,0.347266 0.41341,0.578776 0.33073,0.231511 0.79375,0.231511 0.64492,0 1.86862,-0.446485 l 0.39687,3.604948 q -1.62057,0.694531 -3.67109,0.694531 -1.25677,0 -2.26549,-0.413411 -1.00873,-0.429948 -1.48829,-1.091406 -0.46302,-0.677995 -0.64492,-1.819011 -0.14883,-0.810286 -0.14883,-3.274218 v -7.65638 h -2.1332 v -3.704167 h 2.1332 V 18.28032 l 4.66329,-2.711979 v 6.201171 z"
         style="font-style:normal;font-variant:normal;font-weight:bold;font-stretch:normal;font-size:33.86666489px;font-family:Arial;-inkscape-font-specification:Arial;letter-spacing:-0.26458332px;fill:#ffffff;fill-opacity:1;stroke-width:0.26458332"
         id="path893" />
    </g>
    <g
       aria-label="Descent"
       style="font-style:normal;font-variant:normal;font-weight:bold;font-stretch:normal;font-size:10.58333302px;line-height:1.25;font-family:Arial;-inkscape-font-specification:'Arial Bold';letter-spacing:-0.26458332px;word-spacing:0px;fill:#ffffff;fill-opacity:1;stroke:none;stroke-width:0.26458332"
       id="text3760-5">
      <path
         d="m 27.347424,52.319512 h 8.946223 q 3.026172,0 4.613672,0.46302 2.133203,0.628386 3.654557,2.232422 1.521354,1.604037 2.315104,3.935677 0.79375,2.315104 0.79375,5.721614 0,2.993099 -0.74414,5.159375 -0.909506,2.645833 -2.596224,4.282943 -1.273307,1.240234 -3.439583,1.934765 -1.620573,0.51263 -4.332552,0.51263 h -9.210807 z m 4.894791,4.101041 v 16.0569 h 3.654557 q 2.050521,0 2.960026,-0.23151 1.190625,-0.297656 1.967839,-1.008724 0.79375,-0.711068 1.289843,-2.33164 0.496094,-1.63711 0.496094,-4.448308 0,-2.811197 -0.496094,-4.316015 -0.496093,-1.504818 -1.389062,-2.348177 -0.892969,-0.843359 -2.265495,-1.141015 -1.02526,-0.231511 -4.018359,-0.231511 z"
         style="font-style:normal;font-variant:normal;font-weight:bold;font-stretch:normal;font-size:33.86666489px;font-family:Arial;-inkscape-font-specification:'Arial Bold';letter-spacing:-0.26458332px;fill:#ffffff;fill-opacity:1;stroke-width:0.26458332"
         id="path896" />
      <path
         d="m 61.710182,70.972636 4.630208,0.777213 q -0.892968,2.546615 -2.827734,3.886068 -1.918229,1.322916 -4.812109,1.322916 -4.580599,0 -6.779948,-2.993099 -1.736328,-2.397786 -1.736328,-6.052343 0,-4.365625 2.282032,-6.829557 2.282031,-2.480468 5.771223,-2.480468 3.919141,0 6.184635,2.596223 2.265495,2.579688 2.166276,7.920963 H 54.946771 q 0.04961,2.067058 1.124479,3.22461 1.07487,1.141015 2.678906,1.141015 1.091407,0 1.835547,-0.595312 0.744141,-0.595313 1.124479,-1.918229 z m 0.264584,-4.696354 q -0.04961,-2.017448 -1.041797,-3.059245 -0.992188,-1.058333 -2.414323,-1.058333 -1.521354,0 -2.513542,1.107943 -0.992187,1.107942 -0.975651,3.009635 z"
         style="font-style:normal;font-variant:normal;font-weight:bold;font-stretch:normal;font-size:33.86666489px;font-family:Arial;-inkscape-font-specification:'Arial Bold';letter-spacing:-0.26458332px;fill:#ffffff;fill-opacity:1;stroke-width:0.26458332"
         id="path898" />
      <path
         d="m 68.490131,71.551412 4.663281,-0.711068 q 0.297656,1.35599 1.207161,2.067057 0.909505,0.694531 2.546614,0.694531 1.802474,0 2.711979,-0.661458 0.611849,-0.463021 0.611849,-1.240234 0,-0.529167 -0.330729,-0.876432 -0.347265,-0.33073 -1.554427,-0.611849 -5.622395,-1.240235 -7.127213,-2.265495 -2.083594,-1.422135 -2.083594,-3.952213 0,-2.282031 1.802474,-3.836458 1.802474,-1.554427 5.589323,-1.554427 3.604948,0 5.357812,1.174088 1.752865,1.174088 2.414323,3.472656 l -4.382161,0.810286 q -0.28112,-1.02526 -1.07487,-1.570963 -0.777214,-0.545703 -2.232422,-0.545703 -1.835547,0 -2.629297,0.51263 -0.529166,0.363802 -0.529166,0.942578 0,0.496094 0.463021,0.84336 0.628385,0.46302 4.332551,1.30638 3.720703,0.843359 5.192448,2.067057 1.455208,1.240234 1.455208,3.456119 0,2.414323 -2.017447,4.150651 -2.017448,1.736328 -5.969662,1.736328 -3.588411,0 -5.688541,-1.455208 -2.083594,-1.455208 -2.728515,-3.952213 z"
         style="font-style:normal;font-variant:normal;font-weight:bold;font-stretch:normal;font-size:33.86666489px;font-family:Arial;-inkscape-font-specification:'Arial Bold';letter-spacing:-0.26458332px;fill:#ffffff;fill-opacity:1;stroke-width:0.26458332"
         id="path900" />
      <path
         d="m 104.02697,64.192688 -4.580594,0.826823 q -0.231511,-1.372526 -1.058333,-2.067057 -0.810287,-0.694531 -2.116667,-0.694531 -1.736328,0 -2.778125,1.207161 -1.02526,1.190625 -1.02526,4.001823 0,3.12539 1.041797,4.415234 1.058333,1.289844 2.827734,1.289844 1.322916,0 2.166276,-0.744141 0.843359,-0.760677 1.190625,-2.596224 l 4.564057,0.777214 q -0.71106,3.141927 -2.72851,4.745963 -2.017448,1.604036 -5.407422,1.604036 -3.852995,0 -6.151562,-2.430859 -2.282031,-2.430859 -2.282031,-6.730338 0,-4.349088 2.298567,-6.763411 2.298568,-2.430859 6.217708,-2.430859 3.208073,0 5.09323,1.389062 1.90169,1.372526 2.72851,4.20026 z"
         style="font-style:normal;font-variant:normal;font-weight:bold;font-stretch:normal;font-size:33.86666489px;font-family:Arial;-inkscape-font-specification:'Arial Bold';letter-spacing:-0.26458332px;fill:#ffffff;fill-opacity:1;stroke-width:0.26458332"
         id="path902" />
      <path
         d="m 117.47112,70.972636 4.6302,0.777213 q -0.89297,2.546615 -2.82773,3.886068 -1.91823,1.322916 -4.81211,1.322916 -4.5806,0 -6.77995,-2.993099 -1.73633,-2.397786 -1.73633,-6.052343 0,-4.365625 2.28204,-6.829557 2.28203,-2.480468 5.77122,-2.480468 3.91914,0 6.18463,2.596223 2.2655,2.579688 2.16628,7.920963 H 110.7077 q 0.0496,2.067058 1.12448,3.22461 1.07487,1.141015 2.67891,1.141015 1.09141,0 1.83555,-0.595312 0.74414,-0.595313 1.12448,-1.918229 z m 0.26458,-4.696354 q -0.0496,-2.017448 -1.0418,-3.059245 -0.99219,-1.058333 -2.41432,-1.058333 -1.52136,0 -2.51354,1.107943 -0.99219,1.107942 -0.97565,3.009635 z"
         style="font-style:normal;font-variant:normal;font-weight:bold;font-stretch:normal;font-size:33.86666489px;font-family:Arial;-inkscape-font-specification:'Arial Bold';letter-spacing:-0.26458332px;fill:#ffffff;fill-opacity:1;stroke-width:0.26458332"
         id="path904" />
      <path
         d="m 141.86239,76.561958 h -4.64675 v -8.96276 q 0,-2.84427 -0.29765,-3.671093 -0.29766,-0.84336 -0.97565,-1.30638 -0.66146,-0.463021 -1.60404,-0.463021 -1.20716,0 -2.16628,0.661458 -0.95911,0.661458 -1.32291,1.752865 -0.34727,1.091406 -0.34727,4.034895 v 7.954036 H 125.8551 V 59.00024 h 4.31601 v 2.579688 q 2.29857,-2.976562 5.78776,-2.976562 1.53789,0 2.8112,0.562239 1.27331,0.545703 1.91823,1.405599 0.66146,0.859896 0.9095,1.951302 0.26459,1.091406 0.26459,3.12539 z"
         style="font-style:normal;font-variant:normal;font-weight:bold;font-stretch:normal;font-size:33.86666489px;font-family:Arial;-inkscape-font-specification:'Arial Bold';letter-spacing:-0.26458332px;fill:#ffffff;fill-opacity:1;stroke-width:0.26458332"
         id="path906" />
      <path
         d="m 154.38049,59.00024 v 3.704167 h -3.175 v 7.077604 q 0,2.149739 0.0827,2.513541 0.0992,0.347266 0.41341,0.578776 0.33073,0.231511 0.79375,0.231511 0.64492,0 1.86862,-0.446485 l 0.39688,3.604948 q -1.62058,0.694531 -3.6711,0.694531 -1.25677,0 -2.26549,-0.413411 -1.00873,-0.429948 -1.48828,-1.091406 -0.46302,-0.677995 -0.64492,-1.819011 -0.14883,-0.810286 -0.14883,-3.274218 v -7.65638 H 144.409 V 59.00024 h 2.13321 v -3.489192 l 4.66328,-2.711979 v 6.201171 z"
         style="font-style:normal;font-variant:normal;font-weight:bold;font-stretch:normal;font-size:33.86666489px;font-family:Arial;-inkscape-font-specification:'Arial Bold';letter-spacing:-0.26458332px;fill:#ffffff;fill-opacity:1;stroke-width:0.26458332"
         id="path908" />
    </g>
    <path
       style="fill:#ffffff;fill-opacity:1;stroke-width:2.17498517"
       d="M 460.12305,0.13476562 576.04688,233.70508 c 12.54691,10e-4 26.01714,0.002 36.96484,0.002 L 497.08789,0.13671875 c -12.54698,-0.001021 -26.01714,-0.002026 -36.96484,-0.001953 z"
       transform="matrix(0.26458333,0,0,0.26458333,27.347424,15.088784)"
       id="rect3917"
       inkscape:connector-curvature="0"
       sodipodi:nodetypes="ccccc" />
  </g>
</svg>
