<?xml version="1.0" standalone="no"?>
<!DOCTYPE svg PUBLIC "-//W3C//DTD SVG 20010904//EN"
 "http://www.w3.org/TR/2001/REC-SVG-20010904/DTD/svg10.dtd">
<svg version="1.0" xmlns="http://www.w3.org/2000/svg"
 width="1160.000000pt" height="1160.000000pt" viewBox="0 0 1160.000000 1160.000000"
 preserveAspectRatio="xMidYMid meet">
<metadata>
Created by potrace 1.14, written by Peter Selinger 2001-2017
</metadata>
<g transform="translate(0.000000,1160.000000) scale(0.100000,-0.100000)"
fill="#000000" stroke="none">
<path d="M0 5795 l0 -3666 2328 4 c1280 3 2350 7 2377 10 46 5 88 9 220 22 49
4 100 11 160 21 17 3 39 7 50 8 141 17 429 93 542 142 17 8 36 14 42 14 6 0
19 4 29 10 25 14 110 50 117 50 9 0 185 88 260 130 54 30 223 138 235 150 3 3
39 32 80 65 86 68 209 190 290 285 30 36 58 67 61 70 3 3 25 32 50 65 24 33
46 62 49 65 13 13 133 200 183 285 25 44 177 353 177 362 1 4 9 26 20 48 11
22 19 44 20 48 0 5 6 23 14 40 8 18 24 61 36 97 12 36 25 72 28 80 6 17 4 10
37 120 14 47 27 94 30 105 3 11 8 35 13 54 l7 34 18 -26 c9 -14 17 -32 17 -39
0 -7 9 -24 20 -38 11 -14 20 -29 20 -33 0 -5 156 -322 346 -705 190 -383 441
-887 556 -1120 l210 -422 1478 0 1479 0 -30 62 c-17 35 -42 88 -57 118 -14 30
-29 57 -34 58 -4 2 -8 8 -8 14 0 16 -232 482 -244 490 -6 4 -8 8 -4 8 3 0 -20
53 -53 117 -32 65 -59 124 -59 131 0 6 -3 12 -7 12 -9 0 -33 48 -33 66 0 7 -3
14 -7 16 -9 4 -233 455 -233 469 0 5 -4 9 -10 9 -5 0 -10 5 -10 11 0 6 -111
234 -247 507 -136 273 -245 499 -244 501 1 2 -1 7 -6 10 -4 3 -46 85 -93 181
-47 96 -89 180 -93 187 -13 18 -128 255 -134 276 -3 9 -9 17 -14 17 -5 0 -9 5
-9 12 0 11 -69 150 -771 1564 -181 364 -329 666 -329 672 0 6 -5 12 -11 14 -5
2 -11 11 -12 20 -2 9 -7 22 -13 29 -5 8 -32 61 -59 119 -28 58 -53 107 -56
110 -5 4 -19 34 -24 50 -7 23 -221 446 -227 448 -4 2 -8 9 -8 15 0 7 -112 238
-250 515 l-250 502 -3980 0 -3980 0 0 -3665z m3066 2391 c28 -2 68 -7 90 -10
21 -3 55 -8 74 -11 87 -12 160 -29 265 -64 84 -28 244 -97 255 -110 3 -3 21
-15 40 -25 65 -35 163 -112 244 -192 50 -50 96 -104 96 -114 0 -5 4 -10 8 -10
20 0 153 -226 209 -355 30 -68 94 -245 99 -272 2 -12 9 -34 14 -48 5 -14 8
-25 5 -25 -2 0 2 -21 10 -47 7 -27 16 -64 19 -83 3 -19 8 -46 11 -60 8 -40 35
-249 41 -317 3 -34 7 -86 10 -115 10 -118 15 -297 15 -553 1 -249 -1 -313 -16
-525 -13 -186 -14 -194 -30 -310 -2 -14 -7 -47 -11 -75 -3 -27 -8 -59 -10 -70
-2 -11 -7 -36 -11 -55 -3 -19 -8 -44 -9 -55 -1 -11 -3 -20 -4 -20 -1 0 -4 -11
-6 -25 -11 -63 -67 -254 -99 -340 -36 -95 -95 -231 -105 -240 -3 -3 -15 -26
-28 -51 -12 -26 -29 -52 -37 -59 -8 -7 -15 -19 -15 -26 0 -8 -4 -14 -9 -14 -5
0 -13 -9 -16 -20 -6 -20 -155 -176 -201 -211 -119 -92 -373 -213 -486 -233
-15 -2 -31 -7 -36 -9 -4 -3 -27 -8 -52 -12 -25 -4 -47 -8 -50 -10 -3 -2 -30
-6 -60 -10 -30 -4 -66 -8 -80 -10 -38 -5 -200 -17 -245 -19 l-40 -1 -1 2405
c0 1323 1 2408 2 2411 3 6 45 5 150 -5z"/>
</g>
</svg>
